<svg width="22" height="22" viewBox="0 0 22 22" fill="none" xmlns="http://www.w3.org/2000/svg">
<path d="M21.6562 10.75C21.6562 4.90625 16.8438 0.09375 11 0.09375C5.11328 0.09375 0.34375 4.90625 0.34375 10.75C0.34375 16.6367 5.11328 21.4062 11 21.4062C16.8438 21.4062 21.6562 16.6367 21.6562 10.75ZM11 12.8984C12.0742 12.8984 12.9766 13.8008 12.9766 14.875C12.9766 15.9922 12.0742 16.8516 11 16.8516C9.88281 16.8516 9.02344 15.9922 9.02344 14.875C9.02344 13.8008 9.88281 12.8984 11 12.8984ZM9.10938 5.80859C9.06641 5.50781 9.32422 5.25 9.625 5.25H12.332C12.6328 5.25 12.8906 5.50781 12.8477 5.80859L12.5469 11.6523C12.5039 11.9531 12.2891 12.125 12.0312 12.125H9.92578C9.66797 12.125 9.45312 11.9531 9.41016 11.6523L9.10938 5.80859Z" fill="#DF2A4A"/>
</svg>
